
<svg width="320px" height="280px" viewBox="0 0 308 221" version="1.1" xmlns="http://www.w3.org/2000/svg" xmlns:xlink="http://www.w3.org/1999/xlink">
    <defs>
        <linearGradient x1="52.847231%" y1="38.1089765%" x2="49.1484799%" y2="67.110076%" id="linearGradient-e9jz6tn1th-1">
            <stop stop-color="#EFF0F2" offset="0%"></stop>
            <stop stop-color="#ECEDEF" stop-opacity="0.95" offset="1%"></stop>
            <stop stop-color="#E0E1E4" stop-opacity="0.75" offset="8%"></stop>
            <stop stop-color="#D6D7DA" stop-opacity="0.57" offset="16%"></stop>
            <stop stop-color="#CDCED1" stop-opacity="0.42" offset="23%"></stop>
            <stop stop-color="#C5C7CA" stop-opacity="0.29" offset="32%"></stop>
            <stop stop-color="#BFC1C4" stop-opacity="0.18" offset="40%"></stop>
            <stop stop-color="#BABCC0" stop-opacity="0.1" offset="50%"></stop>
            <stop stop-color="#B7B8BC" stop-opacity="0.04" offset="62%"></stop>
            <stop stop-color="#B5B7BB" stop-opacity="0.01" offset="75%"></stop>
            <stop stop-color="#B4B5BA" stop-opacity="0" offset="100%"></stop>
        </linearGradient>
        <linearGradient x1="-0.00715588899%" y1="49.9866623%" x2="100.019242%" y2="49.9866623%" id="linearGradient-e9jz6tn1th-2">
            <stop stop-color="#F2F6FA" stop-opacity="0" offset="0%"></stop>
            <stop stop-color="#E6E6E6" stop-opacity="0.5" offset="70%"></stop>
        </linearGradient>
        <linearGradient x1="80.9570934%" y1="9.98288443%" x2="26.019792%" y2="90.1641416%" id="linearGradient-e9jz6tn1th-3">
            <stop stop-color="#EFF0F2" offset="0%"></stop>
            <stop stop-color="#C5C8CC" offset="100%"></stop>
        </linearGradient>
        <linearGradient x1="61.3349108%" y1="-20.9850107%" x2="58.3821189%" y2="-2.14132762%" id="linearGradient-e9jz6tn1th-4">
            <stop stop-color="#F0EFF2" offset="0%"></stop>
            <stop stop-color="#C6C5CC" offset="100%"></stop>
        </linearGradient>
        <linearGradient x1="50.6386296%" y1="52.7577938%" x2="50.3950036%" y2="51.9184652%" id="linearGradient-e9jz6tn1th-5">
            <stop stop-color="#F0EFF2" offset="0%"></stop>
            <stop stop-color="#C6C5CC" offset="100%"></stop>
        </linearGradient>
        <linearGradient x1="82.0930396%" y1="9.98288443%" x2="25.1398571%" y2="90.1641416%" id="linearGradient-e9jz6tn1th-6">
            <stop stop-color="#EFF0F2" offset="0%"></stop>
            <stop stop-color="#C5C8CC" offset="100%"></stop>
        </linearGradient>
        <linearGradient x1="75.2495693%" y1="-20.6484642%" x2="68.6627252%" y2="-1.53583618%" id="linearGradient-e9jz6tn1th-7">
            <stop stop-color="#F0EFF2" offset="0%"></stop>
            <stop stop-color="#C6C5CC" offset="100%"></stop>
        </linearGradient>
        <linearGradient x1="51.688983%" y1="52.221172%" x2="51.0737387%" y2="51.4177694%" id="linearGradient-e9jz6tn1th-8">
            <stop stop-color="#F0EFF2" offset="0%"></stop>
            <stop stop-color="#C6C5CC" offset="100%"></stop>
        </linearGradient>
        <linearGradient x1="80.1582343%" y1="9.98288443%" x2="26.63861%" y2="90.1641416%" id="linearGradient-e9jz6tn1th-9">
            <stop stop-color="#EFF0F2" offset="0%"></stop>
            <stop stop-color="#C5C8CC" offset="100%"></stop>
        </linearGradient>
        <linearGradient x1="70.0499325%" y1="-21.3496933%" x2="64.8695671%" y2="-2.20858896%" id="linearGradient-e9jz6tn1th-10">
            <stop stop-color="#F0EFF2" offset="0%"></stop>
            <stop stop-color="#C6C5CC" offset="100%"></stop>
        </linearGradient>
        <linearGradient x1="50.8959681%" y1="52.2108844%" x2="50.5680689%" y2="51.3945578%" id="linearGradient-e9jz6tn1th-11">
            <stop stop-color="#F0EFF2" offset="0%"></stop>
            <stop stop-color="#C6C5CC" offset="100%"></stop>
        </linearGradient>
        <linearGradient x1="70.2567873%" y1="-20.4444444%" x2="65.017963%" y2="-1.33333333%" id="linearGradient-e9jz6tn1th-12">
            <stop stop-color="#F0EFF2" offset="0%"></stop>
            <stop stop-color="#C6C5CC" offset="100%"></stop>
        </linearGradient>
        <linearGradient x1="50.7576191%" y1="52.2572665%" x2="50.472647%" y2="51.4533086%" id="linearGradient-e9jz6tn1th-13">
            <stop stop-color="#F0EFF2" offset="0%"></stop>
            <stop stop-color="#C6C5CC" offset="100%"></stop>
        </linearGradient>
        <linearGradient x1="70.2567873%" y1="-20.2222222%" x2="65.017963%" y2="-1.33333333%" id="linearGradient-e9jz6tn1th-14">
            <stop stop-color="#F0EFF2" offset="0%"></stop>
            <stop stop-color="#C6C5CC" offset="100%"></stop>
        </linearGradient>
        <linearGradient x1="50.7452251%" y1="52.2600619%" x2="50.4755139%" y2="51.4551084%" id="linearGradient-e9jz6tn1th-15">
            <stop stop-color="#F0EFF2" offset="0%"></stop>
            <stop stop-color="#C6C5CC" offset="100%"></stop>
        </linearGradient>
        <linearGradient x1="48.0670499%" y1="19.9269009%" x2="50.3023275%" y2="66.1879179%" id="linearGradient-e9jz6tn1th-16">
            <stop stop-color="#EFF0F2" offset="0%"></stop>
            <stop stop-color="#C5C9CC" stop-opacity="0" offset="100%"></stop>
        </linearGradient>
        <linearGradient x1="18.6038599%" y1="2.02377025%" x2="59.7661249%" y2="78.0606106%" id="linearGradient-e9jz6tn1th-17">
            <stop stop-color="#F0EFF2" offset="0%"></stop>
            <stop stop-color="#C6C5CC" stop-opacity="0" offset="100%"></stop>
        </linearGradient>
        <linearGradient x1="48.0670499%" y1="18.301617%" x2="50.3023275%" y2="67.0627849%" id="linearGradient-e9jz6tn1th-18">
            <stop stop-color="#EFF0F2" offset="0%"></stop>
            <stop stop-color="#C5C9CC" stop-opacity="0" offset="100%"></stop>
        </linearGradient>
        <linearGradient x1="48.0670499%" y1="16.8444083%" x2="50.3023275%" y2="67.8471795%" id="linearGradient-e9jz6tn1th-19">
            <stop stop-color="#EFF0F2" offset="0%"></stop>
            <stop stop-color="#C5C9CC" stop-opacity="0" offset="100%"></stop>
        </linearGradient>
        <linearGradient x1="0%" y1="49.9946803%" x2="100%" y2="49.9946803%" id="linearGradient-e9jz6tn1th-20">
            <stop stop-color="#D8DBE1" offset="0%"></stop>
            <stop stop-color="#F4F4F4" offset="100%"></stop>
        </linearGradient>
        <linearGradient x1="69%" y1="49.9186992%" x2="100%" y2="49.9186992%" id="linearGradient-e9jz6tn1th-21">
            <stop stop-color="#DAE0E7" stop-opacity="0.7" offset="0%"></stop>
            <stop stop-color="#F4F4F4" stop-opacity="0" offset="100%"></stop>
        </linearGradient>
        <linearGradient x1="69%" y1="49.9186992%" x2="100%" y2="49.9186992%" id="linearGradient-e9jz6tn1th-22">
            <stop stop-color="#DAE0E7" stop-opacity="0.7" offset="0%"></stop>
            <stop stop-color="#F4F4F4" stop-opacity="0" offset="100%"></stop>
        </linearGradient>
        <linearGradient x1="31.4319525%" y1="7.00007435%" x2="50%" y2="100%" id="linearGradient-e9jz6tn1th-23">
            <stop stop-color="#C9D2DC" offset="0%"></stop>
            <stop stop-color="#E3E8F2" offset="100%"></stop>
        </linearGradient>
    </defs>
    <g id="页面-1" stroke="none" stroke-width="1" fill="none" fill-rule="evenodd">
        <g id="门户首页-访问地址不存在" transform="translate(-566.000000, -256.000000)">
            <g id="编组-6" transform="translate(566.000000, 256.000000)">
                <g id="空状态_访问地址不存在" transform="translate(4.000000, 0.000000)" fill-rule="nonzero">
                    <path d="M0,182.359194 C0.953702536,106.277223 67.7431563,44.8717689 149.996215,44.8717689 C232.839662,44.8717689 300,107.161898 300,184" id="路径" fill="url(#linearGradient-e9jz6tn1th-1)"></path>
                    <ellipse id="椭圆形" fill="#C1C7CF" opacity="0.167618234" cx="185.5" cy="124.140079" rx="14.5" ry="13.4606564"></ellipse>
                    <path d="M211,39.8863406 C211,39.8863406 200.666942,51.2921175 201.008274,61.822225 L204.344021,61.822225 C204.344021,61.822225 205.554199,49.1213406 211,39.8863406 Z M218.806721,23.9329701 C216.583137,26.7090593 215.158535,30.6406019 216.485148,34.1594825 C217.41227,36.5829334 220.186097,36.5979393 219.99012,39.966761 C219.801791,41.6498921 219.221041,43.2659535 218.294166,44.6861127 C216.720704,47.4264975 214.79215,49.9490909 212.558072,52.1890565 C214.420384,53.6288866 215.368755,55.9488702 215.045472,58.273944 C214.676805,60.5841063 213.575411,62.7163051 211.902303,64.3588314 C211.408601,64.955464 210.766792,65.4132705 210.040523,65.6868525 C209.334041,65.8518061 208.598796,65.8518061 207.892314,65.6868525 C204.427051,65.1032702 201.06212,64.0347739 197.897491,62.5131072 C195.922647,61.5827422 193.902577,60.2622241 193.231733,58.266441 C192.477975,55.9330255 193.691525,55.1902341 195.025675,54.4549456 L195.364866,54.267372 C196.074941,53.9409956 196.687848,53.4368953 197.143734,52.8042979 C198.116081,51.2136738 198.146231,49.052826 198.492959,47.312143 C198.997977,44.6936156 198.251757,39.9142404 201.545677,38.8938401 C202.827064,38.4961841 204.213978,38.5862194 205.487828,38.1435457 C208.261655,37.2657013 209.414904,34.6696827 210.522927,32.0511553 L210.726442,31.5784698 C211.268668,30.0981199 212.030906,28.7071043 212.987714,27.4518507 C214.412316,25.8537237 217.856987,25.0584117 218.806721,23.9329701 L218.806721,23.9329701 Z" id="形状" fill="url(#linearGradient-e9jz6tn1th-2)"></path>
                    <path d="M131.488372,55.8397111 C136.74234,55.8397111 141,52.1454077 141,47.5850124 C140.99704,46.6552722 140.814787,45.7345442 140.462928,44.8717689 C134.271834,45.2574752 128.107765,45.986764 122,47.0561599 C122,47.2324441 122,47.4087283 122,47.5850124 C121.976744,52.1454077 126.249972,55.8397111 131.488372,55.8397111 Z" id="路径" fill="#CECECE"></path>
                    <path d="M77.0123479,86.7493664 C89.1539858,86.7493664 99,77.5587545 99,66.2543019 C98.9934937,62.1506925 97.6903437,58.1550204 95.2781914,54.8426254 C81.6594168,59.6417736 68.7753951,66.3288023 57,74.7096648 C60.4319956,81.8094125 68.0815326,86.7493664 77.0123479,86.7493664 Z" id="路径" fill="#C3CCD8" opacity="0.215984526"></path>
                    <ellipse id="椭圆形" fill="#E2E5EB" opacity="0.427728562" cx="74" cy="129.62405" rx="11" ry="9.97085656"></ellipse>
                    <ellipse id="椭圆形" fill="#EAEAEA" opacity="0.552780878" cx="219.5" cy="143.583249" rx="6.5" ry="5.98251394"></ellipse>
                    <path d="M238.592332,71.3072264 C238.852128,70.2694617 239.127205,68.2164922 237.369764,67.8480105 C236.065811,67.6094292 234.789398,68.3787286 234.412679,69.6302587 C233.96382,71.9050432 233.639879,74.2019858 233.442266,76.5110904 C233.433009,76.6489248 233.407364,76.7852159 233.365855,76.9171722 C233.055233,77.9419315 232.358118,78.8109593 231.417388,79.3461434 C229.835691,80.143267 232.945598,84.8056885 237.438534,83.5423227 C241.93147,82.2789569 242.214189,79.8349456 241.916188,76.4885303 C241.648751,73.5557168 239.478694,75.345485 238.668743,73.1345948 C238.460257,72.5463037 238.433666,71.9103874 238.592332,71.3072264 L238.592332,71.3072264 Z" id="路径" fill="url(#linearGradient-e9jz6tn1th-3)"></path>
                    <path d="M237,80.3398351 C237.265216,80.1583975 237.50733,79.9371711 237.719697,79.6822283 C237.938589,79.4198757 238.13398,79.1338111 238.30303,78.8281935 C238.470011,78.5156505 238.611985,78.1869738 238.727273,77.8460534 C238.838638,77.4972554 238.929739,77.1406533 239,76.7785099 C238.965791,77.1506622 238.904987,77.5190938 238.818182,77.8802148 C238.735212,78.2448207 238.62104,78.5994852 238.477273,78.939218 C238.329715,79.2828551 238.152065,79.6090088 237.94697,79.9128177 C237.731613,80.2365211 237.476537,80.524075 237.189394,80.7668525 L237,80.3398351 Z" id="路径" fill="url(#linearGradient-e9jz6tn1th-4)"></path>
                    <path d="M236.46196,73.8649634 C236.203476,74.8984947 236.090486,75.986468 236.128647,77.0744076 C236.151584,77.6073806 236.238443,78.1320621 236.385941,78.6286179 C236.55228,79.131107 236.68723,79.6509303 236.789425,80.1828281 C236.893999,80.7305033 236.960551,81.2897716 236.988243,81.8536041 C237.010727,82.4158815 237.000953,82.9796179 236.959005,83.5399223 C236.959005,83.8196801 236.918072,84.0916669 236.882986,84.3714248 C236.847901,84.6511826 236.824511,84.8998562 236.80112,85.1485299 C236.77773,85.3972035 236.80112,85.6769614 236.760187,85.925635 L236.760187,86.3375007 L236.760187,86.5473191 L236.760187,86.7027401 C236.760187,86.7027401 236.760187,86.7027401 236.725101,86.7493664 L236.479503,86.7493664 C236.432722,86.7493664 236.479503,86.7493664 236.479503,86.6949691 L236.479503,85.917864 C236.464948,85.6384404 236.464948,85.358014 236.479503,85.0785904 C236.493562,84.7963998 236.522876,84.5159184 236.567216,84.2393169 C236.596454,83.9751011 236.625692,83.7031143 236.649083,83.4622118 C236.743994,82.3950477 236.712423,81.3147069 236.555521,80.2605386 C236.467418,79.7334227 236.354135,79.2143013 236.216361,78.7063284 C236.075109,78.1718552 236.001983,77.6097961 236,77.0433234 C236.001039,75.9263664 236.165896,74.8203876 236.48535,73.7872529 L236.46196,73.8649634 Z" id="路径" fill="url(#linearGradient-e9jz6tn1th-5)"></path>
                    <path d="M255.62661,77.1797242 C255.956453,75.8800654 256.309308,73.3104544 254.092459,72.8425772 C252.434494,72.5499434 250.81374,73.5087029 250.326116,75.0705637 C249.8582,76.4519153 249.229198,82.4526255 249.106466,83.6780181 C249.086206,83.8491048 249.050268,84.0181076 248.999075,84.1830284 C248.603686,85.4603976 247.720445,86.5439159 246.529091,87.21309 C244.519352,88.2082573 248.485134,94.0381552 254.199849,92.4637114 C259.914564,90.8892677 260.27509,87.8220729 259.891552,83.640885 C259.554039,79.9795605 256.823249,82.2149736 255.757013,79.4448438 C255.485769,78.718381 255.440432,77.9308712 255.62661,77.1797242 L255.62661,77.1797242 Z" id="路径" fill="url(#linearGradient-e9jz6tn1th-6)"></path>
                    <path d="M253,88.3692053 C253.394516,88.1804541 253.753085,87.9514497 254.065672,87.6886007 C254.404071,87.4256991 254.704303,87.1359117 254.961194,86.8242329 C255.208787,86.5068814 255.42145,86.1745229 255.597015,85.8305503 C255.767813,85.4805785 255.902548,85.1210432 256,84.7551951 C255.952626,85.1296754 255.86578,85.5006617 255.740299,85.8645805 C255.611212,86.232252 255.437326,86.5899816 255.220896,86.9331297 C255.001579,87.2803234 254.734412,87.6088524 254.423881,87.9132002 C254.11218,88.2294682 253.741056,88.5092321 253.322388,88.7435378 L253,88.3692053 Z" id="路径" fill="url(#linearGradient-e9jz6tn1th-7)"></path>
                    <path d="M252.96767,81.7940958 C252.482699,83.0653455 252.268164,84.4009299 252.334289,85.737202 C252.381111,86.3911903 252.547341,87.0348362 252.826919,87.6446702 C253.14777,88.2760234 253.406709,88.9291826 253.601051,89.5973748 C253.798241,90.2673578 253.924839,90.9511625 253.97932,91.6405522 C254.019107,92.3318623 254.001468,93.0247223 253.926538,93.7138872 C253.882554,94.0531602 253.838569,94.3999726 253.768193,94.7392456 C253.697818,95.0785187 253.66263,95.3876341 253.618645,95.7193677 C253.57466,96.0511013 253.565863,96.3677561 253.539472,96.7070291 L253.495488,97.2121689 L253.495488,97.4685085 L253.495488,97.6569935 C253.495488,97.6569935 253.495488,97.6946905 253.433909,97.7173087 L252.96767,97.7173087 C252.870904,97.7173087 252.914888,97.6720723 252.906091,97.6494541 L252.906091,97.2046295 L252.906091,96.6994897 C252.884304,96.3554436 252.884304,96.010638 252.906091,95.6665919 C252.906091,95.3197795 253.002858,94.9654276 253.073234,94.6412334 C253.143609,94.3170392 253.187594,93.9853056 253.231579,93.653572 C253.415355,92.3419696 253.355976,91.0137109 253.05564,89.7180052 C252.889891,89.070152 252.672387,88.4328277 252.404665,87.810537 C252.140234,87.1504428 252.003544,86.4577283 252,85.7598202 C251.998603,84.3887863 252.312477,83.0309557 252.923685,81.7639382 L252.96767,81.7940958 Z" id="路径" fill="url(#linearGradient-e9jz6tn1th-8)"></path>
                    <path d="M51.1133282,102.847534 C51.5637323,101.031301 52.0366567,97.4436797 49.0039352,96.7934235 C46.7495786,96.3843939 44.5461177,97.7258337 43.8843409,99.9101691 C43.2462682,101.84599 42.3829935,110.239528 42.2178453,111.951122 C42.1963941,112.189823 42.1485622,112.42544 42.0752173,112.653697 C41.547086,114.446024 40.3452304,115.966597 38.7197061,116.899049 C35.987254,118.296726 41.3770908,126.436141 49.1165362,124.276094 C56.8559816,122.116048 57.3739464,117.78848 56.8559816,111.936173 C56.3980707,106.816339 52.6447024,109.940559 51.2409427,106.068918 C50.8762477,105.031909 50.8318004,103.909922 51.1133282,102.847534 Z" id="路径" fill="url(#linearGradient-e9jz6tn1th-9)"></path>
                    <path d="M47,119.043931 C47.5310888,118.77137 48.0138115,118.435189 48.4334764,118.045622 C48.8740352,117.648175 49.2652515,117.21276 49.6008584,116.746352 C49.9403192,116.281152 50.227715,115.789608 50.4592275,115.27825 C50.6924173,114.756463 50.8733259,114.21867 51,113.670679 C50.934242,114.230761 50.8165614,114.785491 50.6480687,115.329634 C50.4835025,115.884017 50.2534198,116.422646 49.9613734,116.937205 C49.6673414,117.455349 49.3136626,117.947146 48.9055794,118.405307 C48.4813368,118.876175 47.984723,119.295926 47.4291845,119.653193 L47,119.043931 Z" id="路径" fill="url(#linearGradient-e9jz6tn1th-10)"></path>
                    <path d="M46.9670682,108.715096 C46.4754251,110.465325 46.2598347,112.305967 46.3308603,114.146838 C46.3755916,115.045335 46.5431413,115.929565 46.8271024,116.765714 C47.1455018,117.635795 47.4050273,118.533909 47.6032761,119.451741 C47.7984242,120.374656 47.9240284,121.3159 47.9786387,122.264608 C48.0190864,123.214883 48.0020782,124.167325 47.9277421,125.114781 C47.8895696,125.582348 47.838673,126.052403 47.7750522,126.524945 C47.7050693,126.987538 47.6605348,127.412826 47.6223623,127.867958 C47.5841898,128.32309 47.5651036,128.755839 47.5396553,129.225894 L47.4951207,129.927245 L47.4951207,130.27046 L47.4951207,130.449528 L47.4951207,130.531601 C47.4951207,130.531601 47.4951207,130.591291 47.4314999,130.621135 L46.9607061,130.621135 C46.871637,130.621135 46.9098095,130.561446 46.9034474,130.531601 L46.9034474,129.919784 L46.9034474,129.225894 C46.87814,128.751328 46.87814,128.275373 46.9034474,127.800807 C46.9353904,127.32741 46.9906204,126.856571 47.0688614,126.390643 C47.1324822,125.942972 47.1833788,125.495301 47.2279134,125.040169 C47.4088148,123.236865 47.3465528,121.411406 47.0434131,119.63081 C46.8860837,118.735945 46.6734533,117.85569 46.4072052,116.997011 C46.1434781,116.088568 46.0059996,115.136308 46.0000322,114.176683 C45.9963313,112.292108 46.3120696,110.425466 46.9288957,108.685251 L46.9670682,108.715096 Z" id="路径" fill="url(#linearGradient-e9jz6tn1th-11)"></path>
                    <path d="M105.589966,107.208688 C105.850159,106.169287 106.126122,104.105997 104.367848,103.741431 C103.062328,103.508248 101.786756,104.27586 101.403225,105.525478 C100.956387,107.802697 100.635274,110.102057 100.4413,112.413453 C100.428401,112.550759 100.399295,112.68612 100.354569,112.816803 C100.0503,113.841789 99.3554216,114.71158 98.4149487,115.244659 C96.8380217,116.020332 99.9524525,120.674369 104.430925,119.448805 C108.909398,118.223242 109.216899,115.733333 108.917282,112.382426 C108.649205,109.458139 106.473046,111.249944 105.668813,109.031519 C105.46167,108.444612 105.434253,107.810786 105.589966,107.208688 Z" id="路径" fill="url(#linearGradient-e9jz6tn1th-3)"></path>
                    <path d="M104,116.382752 C104.265694,116.245853 104.507614,116.078051 104.71875,115.884209 C104.938633,115.679113 105.134847,115.456515 105.304687,115.219486 C105.474797,114.984218 105.616158,114.734755 105.726562,114.474995 C105.842412,114.213421 105.933841,113.944482 106,113.670679 C105.967368,113.951417 105.907263,114.22935 105.820313,114.501584 C105.737349,114.77658 105.622189,115.043806 105.476562,115.299252 C105.332581,115.561383 105.154376,115.808889 104.945312,116.037096 C104.722149,116.276714 104.458938,116.487229 104.164062,116.661936 L104,116.382752 Z" id="路径" fill="url(#linearGradient-e9jz6tn1th-12)"></path>
                    <path d="M103.461222,110.686822 C103.2107,111.640698 103.100518,112.643535 103.136027,113.646631 C103.157298,114.139344 103.243193,114.624322 103.39027,115.082138 C103.552822,115.561819 103.685271,116.056617 103.786417,116.562043 C103.887798,117.069052 103.951141,117.586798 103.975621,118.108543 C104.008126,118.625711 104.008126,119.145275 103.975621,119.662443 C103.975621,119.921426 103.92832,120.180409 103.898757,120.402395 C103.869194,120.62438 103.83963,120.890763 103.821892,121.142347 C103.804155,121.393931 103.821892,121.630715 103.774591,121.882299 L103.774591,122.267074 L103.774591,122.452062 L103.774591,122.600053 C103.774591,122.600053 103.774591,122.600053 103.739116,122.64445 L103.50261,122.64445 C103.455309,122.64445 103.473047,122.64445 103.467135,122.592653 L103.467135,122.259675 L103.467135,121.882299 C103.455367,121.623525 103.455367,121.364123 103.467135,121.105349 C103.467135,120.846366 103.514436,120.579983 103.549911,120.365397 C103.585387,120.150811 103.61495,119.877029 103.632688,119.625445 C103.727732,118.639147 103.697801,117.640256 103.543999,116.665636 C103.457093,116.175929 103.344509,115.693917 103.206979,115.222729 C103.073692,114.726526 103.003851,114.207096 103.000037,113.683628 C102.997189,112.652178 103.160056,111.630537 103.47896,110.679422 L103.461222,110.686822 Z" id="路径" fill="url(#linearGradient-e9jz6tn1th-13)"></path>
                    <path d="M50.5882024,76.2990329 C50.8484429,75.2596313 51.1244556,73.1963416 49.3658604,72.8317754 C48.0601019,72.5985925 46.7842964,73.366205 46.4006955,74.6158229 C45.9614871,76.8942873 45.6403719,79.1932482 45.4385942,81.5037976 C45.4244459,81.6402711 45.3980562,81.7752467 45.3597334,81.9071475 C45.0483808,82.9308409 44.3517348,83.7991555 43.4118724,84.3350034 C41.8346571,85.1106762 44.9890878,89.7647132 49.4368351,88.5391502 C53.8845825,87.3135871 54.2236838,84.8236773 53.9161268,81.4727707 C53.6480002,78.5407274 51.479329,80.3325316 50.6670631,78.1218641 C50.4603411,77.5348702 50.4329258,76.9011783 50.5882024,76.2990329 L50.5882024,76.2990329 Z" id="路径" fill="url(#linearGradient-e9jz6tn1th-3)"></path>
                    <path d="M48,85.4730968 C48.2688706,85.3400666 48.511428,85.1718228 48.71875,84.974554 C48.9407305,84.7709415 49.1371084,84.5481582 49.3046875,84.3098302 C49.4717777,84.0731672 49.6129946,83.823959 49.7265625,83.5653396 C49.8412946,83.3034506 49.9326985,83.034586 50,82.7610238 C49.9673678,83.041762 49.9072635,83.3196943 49.8203125,83.5919285 C49.7352498,83.8654765 49.6228616,84.1323373 49.484375,84.3895971 C49.3347033,84.6505297 49.1540772,84.8977623 48.9453125,85.1274404 C48.7348712,85.3630292 48.487825,85.5732275 48.2109375,85.7522808 L48,85.4730968 Z" id="路径" fill="url(#linearGradient-e9jz6tn1th-14)"></path>
                    <path d="M47.5036394,79.7697669 C47.2665339,80.7248241 47.1622525,81.7289035 47.1958598,82.7332412 C47.2159918,83.2265648 47.2972865,83.7121434 47.4364875,84.1705263 C47.591186,84.6503734 47.7165652,85.1458745 47.8114191,85.6522635 C47.9064656,86.1579102 47.9682525,86.6735059 47.9960869,87.1932702 C48.0079049,87.7027588 47.9929462,88.2127188 47.951319,88.7194595 C47.951319,88.9787635 47.906551,89.2306589 47.878571,89.4603281 C47.8505911,89.6899974 47.8226111,89.9493014 47.8058231,90.2011967 C47.7890351,90.4530921 47.8058231,90.69017 47.7666512,90.9420653 L47.7666512,91.3199083 L47.7666512,91.5125341 L47.7666512,91.6088471 L47.7666512,91.6829339 C47.7666512,91.6829339 47.7666512,91.7199774 47.7330752,91.7347947 L47.5092354,91.7347947 C47.4644675,91.7347947 47.5092354,91.7347947 47.4756595,91.6829339 L47.4756595,91.3495431 L47.4756595,90.9717001 C47.4655583,90.7249249 47.4655583,90.4776066 47.4756595,90.2308315 C47.4756595,89.9715275 47.5260234,89.7048148 47.5595994,89.4529194 C47.5931754,89.2010241 47.6155593,88.9639462 47.6323473,88.7120508 C47.7221141,87.7245209 47.6937867,86.724432 47.5484074,85.7485764 C47.4661381,85.2606938 47.3595816,84.7805505 47.2294357,84.3112914 C47.0940203,83.8238127 47.016619,83.3114449 47,82.7925107 C47,81.757735 47.1540227,80.7331019 47.4532755,79.7771755 L47.5036394,79.7697669 Z" id="路径" fill="url(#linearGradient-e9jz6tn1th-15)"></path>
                    <path d="M64.8834403,34.7701616 C64.4584525,34.7726352 64.0353688,34.8263612 63.6236227,34.9301416 C63.6236227,34.8768149 63.6236227,34.8234882 63.6236227,34.7701616 C63.5167387,32.0590337 61.2558504,29.915484 58.5031985,29.915484 C55.7505465,29.915484 53.4896583,32.0590337 53.3827743,34.7701616 L53.3827743,34.8234882 C50.732552,35.2055999 48.827969,37.5349846 49.0123198,40.1687367 C49.1966707,42.8024889 51.4077568,44.8519991 54.086108,44.8717689 C54.9942018,44.8737902 55.8860304,44.6342917 56.6675747,44.1785093 C58.2992142,44.9302419 60.2123288,44.7767229 61.6991161,43.7747503 C62.6003517,44.4862893 63.7210029,44.8732951 64.8757113,44.8717689 C67.7057778,44.8717689 70,42.6104371 70,39.8209588 C70,37.0314805 67.7057778,34.7701616 64.8757113,34.7701616 L64.8834403,34.7701616 Z" id="路径" fill="url(#linearGradient-e9jz6tn1th-16)" opacity="0.486248198"></path>
                    <path d="M97.0566301,29.9128261 C96.8126695,29.9116435 96.5696631,29.943811 96.3341636,30.0084613 L96.3341636,29.9128261 C96.3341636,28.2622684 95.0157156,26.9242271 93.3893275,26.9242271 C91.7629394,26.9242271 90.4444914,28.2622684 90.4444914,29.9128261 L90.4444914,29.9128261 C89.2957352,30.1138817 88.3719679,30.9837105 88.0885123,32.1312404 C87.8050567,33.2787703 88.2152734,34.4879779 89.1347304,35.2152076 C90.0541874,35.9424373 91.3097963,36.0507875 92.3370394,35.4915443 C93.2743643,35.9352197 94.3727652,35.8443454 95.2269053,35.2524564 C96.2387075,36.0654931 97.6542544,36.1152049 98.719015,35.375094 C99.7837757,34.6349831 100.249633,33.2775144 99.8682708,32.0262615 C99.4869085,30.7750086 98.3471936,29.9215458 97.0566301,29.9207957 L97.0566301,29.9128261 Z" id="路径" fill="url(#linearGradient-e9jz6tn1th-17)"></path>
                    <path d="M244.680482,8.1505426 C244.073355,8.15160066 243.468901,8.23171247 242.882099,8.38889299 C242.882099,8.30431705 242.882099,8.22742983 242.882099,8.1505426 C242.754617,4.16463945 239.515306,1 235.562835,1 C231.610365,1 228.371054,4.16463945 228.243571,8.1505426 C228.243571,8.1505426 228.243571,8.20436366 228.243571,8.22742983 C225.33272,8.66260595 222.963636,10.8151963 222.23082,13.6907212 C221.498003,16.5662461 222.544118,19.6048951 224.885867,21.4028364 C227.227617,23.2007776 230.409107,23.4079859 232.960515,21.9287327 C235.289871,23.0288351 238.021743,22.806685 240.146424,21.3443898 C242.65777,23.3481391 246.168725,23.4713417 248.81197,21.6484716 C251.455214,19.8256015 252.616537,16.4802393 251.678282,13.391634 C250.740027,10.3030287 247.920217,8.18887971 244.718583,8.17360877 L244.680482,8.1505426 Z" id="路径" fill="url(#linearGradient-e9jz6tn1th-18)"></path>
                    <path d="M253.112565,16.9637027 C252.857378,16.9629813 252.603218,16.9968846 252.356692,17.0645313 C252.360439,17.0310318 252.360439,16.9972023 252.356692,16.9637027 C252.356692,15.3059708 251.047023,13.9621135 249.431463,13.9621135 C247.815904,13.9621135 246.506235,15.3059708 246.506235,16.9637027 L246.506235,16.9637027 C244.991536,17.1886954 243.901904,18.5737103 244.007001,20.1404429 C244.112097,21.7071754 245.376391,22.9259375 246.906847,22.9358844 C247.425317,22.9378467 247.934644,22.7958006 248.3808,22.5247866 C248.766961,22.7082462 249.18733,22.8035119 249.612873,22.8040042 C250.198535,22.8069 250.770991,22.625537 251.253117,22.2843492 C251.769887,22.708834 252.412821,22.9387769 253.074771,22.9358844 C254.690331,22.9358844 256,21.5919997 256,19.9342678 C256,18.2765358 254.690331,16.9326786 253.074771,16.9326786 L253.112565,16.9637027 Z" id="路径" fill="url(#linearGradient-e9jz6tn1th-19)"></path>
                    <g id="编组-5" transform="translate(85.000000, 0.000000)">
                        <rect id="矩形" fill="url(#linearGradient-e9jz6tn1th-20)" x="0" y="0" width="116" height="94" rx="4.54"></rect>
                        <rect id="矩形" fill="#FFFFFF" opacity="0.853258812" x="4.37018314" y="18.23" width="107.979817" height="71" rx="3.03"></rect>
                        <rect id="矩形" fill="#FFFFFF" opacity="0.76" x="4.35" y="5.11" width="107.979817" height="10" rx="1.85"></rect>
                        <rect id="矩形" fill="url(#linearGradient-e9jz6tn1th-21)" x="7" y="50" width="66.8" height="6.15" rx="3.075"></rect>
                        <rect id="矩形备份-3" fill="url(#linearGradient-e9jz6tn1th-22)" x="7" y="63" width="33" height="6.15" rx="3.075"></rect>
                        <circle id="椭圆形" fill="#CCCCCC" cx="16.4496532" cy="10" r="2.5"></circle>
                        <circle id="椭圆形" fill="#CCCCCC" cx="23.1693064" cy="10" r="2.5"></circle>
                        <circle id="椭圆形" fill="#CCCCCC" cx="9.73" cy="10" r="2.5"></circle>
                    </g>
                    <g id="编组备份" transform="translate(184.386136, 74.386136) rotate(-45.000000) translate(-184.386136, -74.386136) translate(161.652876, 46.092091)">
                        <path d="M22.7332592,0 C10.1776561,0 5.68434189e-14,10.1818419 5.68434189e-14,22.7409525 C5.68434189e-14,35.3000632 10.1776561,45.4819051 22.7332592,45.4819051 C35.2888624,45.4819051 45.4665185,35.3000632 45.4665185,22.7409525 C45.4665185,10.1818419 35.2888624,0 22.7332592,0 Z M22.7332592,8.054819 C30.8395671,8.054819 37.4116995,14.6296543 37.4116995,22.7409525 C37.4116995,30.8522507 30.8395671,37.4270861 22.7332592,37.4270861 C14.6269513,37.4270861 8.054819,30.8522507 8.054819,22.7409525 C8.054819,14.6296543 14.6269513,8.054819 22.7332592,8.054819 Z" id="椭圆形" fill="url(#linearGradient-e9jz6tn1th-23)"></path>
                        <rect id="矩形" fill="#CCD2DC" x="20.5726047" y="45.0656601" width="4.32130913" height="11.5224297" rx="1.0180691"></rect>
                    </g>
                    <g id="访问地址不存在" transform="translate(92.480000, 29.076000)" fill="#C8CED9" opacity="0.671475365">
                        <path d="M3.468,2.004 C3.06,1.512 2.22,0.708 1.656,0.156 L0.66,1.02 C1.212,1.62 2.04,2.484 2.412,2.988 L3.468,2.004 Z M3.048,8.088 L3.048,3.708 L0,3.708 L0,5.076 L1.632,5.076 L1.632,8.436 C1.632,9.024 1.128,9.552 0.828,9.78 C1.08,10.032 1.536,10.608 1.692,10.932 C1.908,10.596 2.304,10.212 4.692,8.328 C4.548,8.064 4.356,7.536 4.272,7.176 L3.048,8.088 Z M11.076,3.48 L11.076,2.088 L7.38,2.088 L8.388,1.764 C8.292,1.32 8.016,0.54 7.788,0 L6.432,0.36 C6.624,0.912 6.828,1.608 6.936,2.088 L3.948,2.088 L3.948,3.48 L5.508,3.48 C5.46,6.288 5.316,8.76 3.612,10.284 C3.96,10.512 4.392,10.968 4.596,11.316 C6.024,10.044 6.564,8.208 6.792,6.084 L8.868,6.084 C8.76,8.46 8.616,9.456 8.388,9.696 C8.28,9.84 8.16,9.876 7.956,9.876 C7.728,9.876 7.224,9.864 6.672,9.816 C6.9,10.188 7.068,10.764 7.092,11.172 C7.704,11.184 8.292,11.196 8.652,11.136 C9.06,11.076 9.348,10.956 9.624,10.596 C10.008,10.14 10.164,8.796 10.308,5.352 C10.32,5.172 10.32,4.764 10.32,4.764 L6.9,4.764 C6.924,4.344 6.936,3.924 6.948,3.48 L11.076,3.48 Z" id="访"></path>
                        <path d="M12.444,11.256 L13.86,11.256 L13.86,2.94 L12.444,2.94 L12.444,11.256 Z M12.528,0.828 C13.116,1.476 13.932,2.388 14.304,2.916 L15.408,2.136 C14.988,1.608 14.148,0.744 13.56,0.132 L12.528,0.828 Z M18.336,5.016 L18.336,7.02 L16.512,7.02 L16.512,5.016 L18.336,5.016 Z M19.716,8.292 L19.716,3.744 L15.228,3.744 L15.228,8.964 L16.512,8.964 L16.512,8.292 L19.716,8.292 Z M22.608,0.648 L15.684,0.648 L15.684,1.98 L21.18,1.98 L21.18,9.528 C21.18,9.744 21.108,9.816 20.892,9.816 C20.688,9.828 19.956,9.828 19.344,9.792 C19.524,10.164 19.728,10.788 19.788,11.196 C20.796,11.208 21.504,11.172 21.972,10.944 C22.44,10.716 22.608,10.332 22.608,9.54 L22.608,0.648 Z" id="问"></path>
                        <path d="M26.688,4.176 L27.9,4.176 L27.9,2.82 L26.688,2.82 L26.688,0.216 L25.356,0.216 L25.356,2.82 L23.952,2.82 L23.952,4.176 L25.356,4.176 L25.356,7.548 C24.756,7.788 24.228,7.992 23.796,8.148 L24.372,9.588 C25.476,9.072 26.844,8.436 28.116,7.8 L27.792,6.54 C27.432,6.696 27.06,6.852 26.688,7.008 L26.688,4.176 Z M30.78,9.768 C30.048,9.768 29.94,9.66 29.94,8.952 L29.94,5.256 L30.936,4.824 L30.936,8.484 L32.268,8.484 L32.268,4.248 L33.3,3.792 C33.3,5.496 33.288,6.372 33.264,6.564 C33.216,6.78 33.144,6.828 33,6.828 C32.892,6.828 32.628,6.828 32.424,6.804 C32.58,7.104 32.688,7.644 32.724,8.004 C33.108,8.004 33.624,7.992 33.972,7.836 C34.332,7.68 34.548,7.392 34.584,6.84 C34.644,6.348 34.668,4.908 34.668,2.628 L34.716,2.388 L33.72,2.04 L33.468,2.208 L33.216,2.376 L32.268,2.784 L32.268,0.048 L30.936,0.048 L30.936,3.36 L29.94,3.78 L29.94,1.212 L28.572,1.212 L28.572,4.368 L27.396,4.86 L27.924,6.132 L28.572,5.856 L28.572,8.94 C28.572,10.596 29.04,11.04 30.66,11.04 L33.216,11.04 C34.62,11.04 35.04,10.464 35.232,8.784 C34.836,8.712 34.284,8.484 33.984,8.268 C33.876,9.492 33.756,9.768 33.096,9.768 L30.78,9.768 Z" id="地"></path>
                        <path d="M39.972,6.492 L38.76,6.936 L38.76,4.176 L40.14,4.176 L40.14,2.82 L38.76,2.82 L38.76,0.228 L37.428,0.228 L37.428,2.82 L35.964,2.82 L35.964,4.176 L37.428,4.176 L37.428,7.428 C36.828,7.62 36.276,7.812 35.832,7.944 L36.36,9.36 C37.488,8.904 38.916,8.316 40.224,7.74 L39.972,6.492 Z M44.616,9.468 L44.616,5.412 L46.92,5.412 L46.92,4.044 L44.616,4.044 L44.616,0.132 L43.176,0.132 L43.176,9.468 L41.928,9.468 L41.928,2.7 L40.536,2.7 L40.536,9.468 L39.264,9.468 L39.264,10.836 L47.16,10.836 L47.16,9.468 L44.616,9.468 Z" id="址"></path>
                        <path d="M54.3,4.68 L54.3,3.432 C54.552,3.072 54.792,2.7 54.996,2.328 L58.728,2.328 L58.728,0.864 L48.324,0.864 L48.324,2.328 L53.112,2.328 C51.996,4.164 50.124,6.024 47.94,7.044 C48.252,7.368 48.696,7.956 48.924,8.34 C50.364,7.596 51.648,6.552 52.74,5.388 L52.74,11.244 L54.3,11.244 L54.3,5.028 C55.596,6.024 57.228,7.392 57.972,8.28 L59.184,7.188 C58.32,6.24 56.472,4.86 55.188,3.936 L54.3,4.68 Z" id="不"></path>
                        <path d="M70.86,2.976 L70.86,1.608 L65.028,1.608 C65.172,1.2 65.316,0.816 65.436,0.408 L63.948,0.048 C63.816,0.564 63.648,1.08 63.456,1.608 L60.204,1.608 L60.204,2.976 L62.844,2.976 C62.112,4.416 61.068,5.724 59.772,6.576 C59.988,6.936 60.3,7.572 60.444,7.944 C60.852,7.668 61.212,7.38 61.572,7.056 L61.572,11.244 L63.012,11.244 L63.012,5.436 C63.576,4.668 64.056,3.84 64.464,2.976 L70.86,2.976 Z M71.04,6.924 L68.196,6.924 L68.196,6.468 C68.988,5.916 69.792,5.208 70.404,4.56 L69.504,3.828 L69.204,3.912 L64.644,3.912 L64.644,5.196 L67.896,5.196 C67.524,5.532 67.128,5.856 66.756,6.084 L66.756,6.924 L63.708,6.924 L63.708,8.256 L66.756,8.256 L66.756,9.72 C66.756,9.876 66.696,9.924 66.492,9.936 C66.3,9.936 65.592,9.936 64.992,9.9 C65.172,10.308 65.34,10.86 65.388,11.268 C66.348,11.28 67.056,11.256 67.56,11.064 C68.076,10.848 68.196,10.476 68.196,9.756 L68.196,8.256 L71.04,8.256 L71.04,6.924 Z" id="存"></path>
                        <path d="M79.98,6.912 L82.356,6.912 L82.356,5.592 L79.98,5.592 L79.98,3.6 L78.54,3.6 L78.54,5.592 L76.104,5.592 L76.104,6.912 L78.54,6.912 L78.54,9.648 L75.636,9.648 L75.636,10.968 L82.824,10.968 L82.824,9.648 L79.98,9.648 L79.98,6.912 Z M77.016,1.716 C77.184,1.284 77.34,0.852 77.472,0.408 L75.972,0.048 C75.828,0.6 75.648,1.152 75.444,1.716 L72.204,1.716 L72.204,3.084 L74.808,3.084 C74.088,4.464 73.08,5.724 71.82,6.54 C72.048,6.888 72.372,7.536 72.528,7.92 C72.912,7.656 73.248,7.392 73.584,7.08 L73.584,11.256 L75.036,11.256 L75.036,5.448 C75.588,4.716 76.044,3.912 76.44,3.084 L82.86,3.084 L82.86,1.716 L77.016,1.716 Z" id="在"></path>
                    </g>
                </g>
                <text id="抱歉！您访问的地址不存在..." font-family="PingFangSC-Semibold, PingFang SC" font-size="20" font-weight="500" line-spacing="35" fill="#000000" fill-opacity="0.45">
                    <tspan x="0.1" y="211">抱歉！您没有权限...</tspan>
                    <tspan x="0.1" y="241">You do not have permission...</tspan>
                    
                </text>
            </g>
        </g>
    </g>
</svg>